<svg id="Layer_1" data-name="Layer 1" xmlns="http://www.w3.org/2000/svg" viewBox="0 0 220 34"><defs><style>.cls-1{fill:#00bf6f;fill-rule:evenodd;}</style></defs><path class="cls-1" d="M49.24,24.39,51,22.25a7.78,7.78,0,0,0,5.34,2.22c1.84,0,3-.86,3-2.14v0c0-1.21-.67-1.87-3.81-2.6-3.6-.87-5.63-1.94-5.63-5.08v0c0-2.92,2.42-4.93,5.77-4.93a9.37,9.37,0,0,1,6.14,2.13L60.22,14a7.65,7.65,0,0,0-4.59-1.75c-1.73,0-2.75.9-2.75,2v.05c0,1.31.77,1.89,4,2.67,3.58.87,5.43,2.16,5.43,5V22c0,3.18-2.48,5.07-6,5.07a10.4,10.4,0,0,1-7.06-2.72m15.05-2.18V14.05H67.2v7.28c0,2,1,3.13,2.73,3.13s2.87-1.19,2.87-3.18V14.05h2.93V26.87H72.8V25.55a5,5,0,0,1-4,1.59c-2.88,0-4.54-1.95-4.54-4.93m14.57-8.16h2.92v2.13c.8-1.92,2.27-2.47,4.52-2.38v2.61h-.17c-2.56,0-4.35,1.72-4.35,5.58v4.88H78.85V14.05Zm8.48,0h3.14L93.9,23l3.46-8.92h3.06L95.21,27H92.57Zm22.56,5.51c-.2-1.9-1.31-3.38-3.24-3.38s-3,1.39-3.31,3.38Zm-9.45,1v-.05c0-3.67,2.59-6.68,6.24-6.68,4,0,6.11,3.21,6.11,6.9,0,.26,0,.53-.05.82h-9.37A3.56,3.56,0,0,0,107,24.76a4.63,4.63,0,0,0,3.45-1.53l1.72,1.53a6.47,6.47,0,0,1-5.22,2.4A6.38,6.38,0,0,1,100.44,20.51ZM128.28,9.87h3.16l5.14,8.67,5.15-8.67h3.16v17h-3V14.68l-5.34,8.65h-.09l-5.29-8.6V26.87h-2.92Zm29.38,10.66v-.05a4,4,0,0,0-3.91-4.13,3.84,3.84,0,0,0-3.84,4.08v.05a4,4,0,0,0,3.89,4.13,3.85,3.85,0,0,0,3.86-4.08m-10.67,0v-.05a6.8,6.8,0,0,1,13.6-.05v.05a6.68,6.68,0,0,1-6.84,6.68A6.61,6.61,0,0,1,147,20.53M176.93,9.14h2.93V19.73l5.29-5.68h3.55l-5.08,5.22,5.24,7.6h-3.38l-3.84-5.54-1.78,1.87v3.67h-2.93Z"/><path class="cls-1" d="M198.07,19.56c-.19-1.9-1.3-3.38-3.23-3.38s-3.05,1.39-3.31,3.38Zm-9.44,1v-.05c0-3.67,2.58-6.68,6.23-6.68,4.06,0,6.11,3.21,6.11,6.9a8,8,0,0,1-.05.82h-9.37a3.57,3.57,0,0,0,3.67,3.26,4.65,4.65,0,0,0,3.46-1.53l1.71,1.53a6.45,6.45,0,0,1-5.22,2.4,6.38,6.38,0,0,1-6.54-6.65Zm-65.58-6.46-3.53,8.74L116,14.05h-3l5,12.52-2.63,6.5h3l7.67-19Zm94.48-.11a2.17,2.17,0,0,1,1,.27,1.89,1.89,0,0,1,.78.78,2.1,2.1,0,0,1,.28,1.06,2.06,2.06,0,0,1-.28,1,2,2,0,0,1-.77.79,2.16,2.16,0,0,1-2.09,0,2,2,0,0,1-.77-.79,2.13,2.13,0,0,1-.28-1,2.1,2.1,0,0,1,.28-1.06,1.91,1.91,0,0,1,.79-.78,2.06,2.06,0,0,1,1-.27m0,.34a1.79,1.79,0,0,0-.86.23,1.65,1.65,0,0,0-.66.65,1.78,1.78,0,0,0,0,1.76,1.57,1.57,0,0,0,.65.65,1.76,1.76,0,0,0,1.74,0,1.54,1.54,0,0,0,.64-.65,1.72,1.72,0,0,0,.23-.87,1.79,1.79,0,0,0-.23-.89,1.65,1.65,0,0,0-.66-.65,1.93,1.93,0,0,0-.85-.23"/><path class="cls-1" d="M217.65,16c.3,0,.49-.15.49-.39h0c0-.25-.18-.39-.49-.39h-.6V16Zm-1-1.17h1a.93.93,0,0,1,.68.24.74.74,0,0,1,.2.51h0a.7.7,0,0,1-.56.71l.63.9h-.49l-.57-.83h-.52v.83h-.41Zm-5.4-.81-3.53,8.74-3.51-8.74h-3l5,12.52-2.62,6.5h3l7.68-19ZM174,18.71v8.16H171V19.58c0-2-1-3.13-2.73-3.13s-2.87,1.19-2.87,3.18v7.24H162.5V14.05h2.93v1.32a5,5,0,0,1,4-1.59c2.88,0,4.54,1.94,4.54,4.93M38.06,23.85a1.47,1.47,0,0,1-1-.39,23.19,23.19,0,0,0,.16-2.37,1.5,1.5,0,0,1,2.34,1.25,1.5,1.5,0,0,1-1.5,1.5h0M5,23.85a1.5,1.5,0,0,1-1.5-1.5h0a1.5,1.5,0,0,1,2.34-1.25A23.19,23.19,0,0,0,6,23.46a1.55,1.55,0,0,1-1,.39m33-6.62a4.91,4.91,0,0,0-1.22.15A15.72,15.72,0,0,0,24.33,5.75l-.79-.12A5.21,5.21,0,0,1,25.83.87L25.49,0s-4.25,1.33-4.74,5c-.21-1-2.19-2.24-3.17-2.47l-.49.79a3.43,3.43,0,0,1,1.62,2.45A15.72,15.72,0,0,0,6.3,17.38a5,5,0,0,0-1.22-.15,5.11,5.11,0,0,0,0,10.22,5.17,5.17,0,0,0,1.86-.35,16.11,16.11,0,0,0,1.65,3.09l4.22-2.86,0,0a10.52,10.52,0,0,1-1.92-5.68c-.12-2.33.44-4.65,1.92-6,3.06-2.61,6.38-1.42,8.46,1.08h.56c2.08-2.5,5.41-3.69,8.46-1.08,1.48,1.36,2.05,3.68,1.92,6a10.52,10.52,0,0,1-1.92,5.68l0,0,4.22,2.87A16.11,16.11,0,0,0,36.1,27.1,5.11,5.11,0,1,0,38,17.23"/></svg>